<?xml version="1.0" encoding="utf-8"?>
<!-- Generator: Adobe Illustrator 24.3.0, SVG Export Plug-In . SVG Version: 6.00 Build 0)  -->
<svg version="1.1" id="Layer_1" xmlns="http://www.w3.org/2000/svg" xmlns:xlink="http://www.w3.org/1999/xlink" x="0px" y="0px"
	 viewBox="0 0 768 597" style="enable-background:new 0 0 768 597;" xml:space="preserve">
<style type="text/css">
	.st0{fill-rule:evenodd;clip-rule:evenodd;fill:#F1F2F2;}
	.st1{fill-rule:evenodd;clip-rule:evenodd;fill:#E6E7E8;}
	.st2{fill:#EF5350;}
	.st3{fill-rule:evenodd;clip-rule:evenodd;fill:#FFFFFF;}
	.st4{fill:#1DD37F;}
	.st5{fill-rule:evenodd;clip-rule:evenodd;fill:#F0F2F2;}
	.st6{fill-rule:evenodd;clip-rule:evenodd;fill:#E9EBEF;fill-opacity:0.5;}
	.st7{fill-rule:evenodd;clip-rule:evenodd;fill:#BEC4CA;}
	.st8{fill-rule:evenodd;clip-rule:evenodd;fill:#6D7783;}
	.st9{fill:#6D7783;}
	.st10{fill-rule:evenodd;clip-rule:evenodd;fill:#061B35;}
	.st11{fill-rule:evenodd;clip-rule:evenodd;fill:#EEA0AD;}
	.st12{fill-rule:evenodd;clip-rule:evenodd;fill:#1D395B;}
	.st13{fill-rule:evenodd;clip-rule:evenodd;fill:#E8E4E3;}
	.st14{fill-rule:evenodd;clip-rule:evenodd;fill:#231510;}
	.st15{fill-rule:evenodd;clip-rule:evenodd;fill:#223C5B;}
	.st16{fill-rule:evenodd;clip-rule:evenodd;fill:#0F1823;}
	.st17{fill-rule:evenodd;clip-rule:evenodd;fill:#F7F8FA;}
	.st18{fill-rule:evenodd;clip-rule:evenodd;fill:#132E54;}
	.st19{fill-rule:evenodd;clip-rule:evenodd;fill:#DFE2E5;}
	.st20{fill-rule:evenodd;clip-rule:evenodd;fill:#6AA1D8;}
	.st21{fill-rule:evenodd;clip-rule:evenodd;fill:#F8EEE5;}
	.st22{fill-rule:evenodd;clip-rule:evenodd;fill:#FCFCFC;}
	.st23{fill-rule:evenodd;clip-rule:evenodd;fill:#F7AA74;}
</style>
<path class="st0" d="M261.2,151l205.4-76.8c19.8,37.7,35.3,77.4,46.4,118.5l-193.9,98.7C319.1,291.4,287.2,199.4,261.2,151z"/>
<path class="st1" d="M261.1,151.5c51.7,17.4,102.1,38.4,150.9,62.7l7.2,3.6v0c19.7-39.9,34.7-81.9,44.7-125.3l4.2-18L261.1,151.5z"
	/>
<path class="st0" d="M533.5,286.1l81.6-30.2c7.9,14.9,14.1,30.6,18.5,46.9l-77,38.9C556.7,341.6,543.9,305.2,533.5,286.1z"/>
<path class="st0" d="M718.5,430l-67-55.5c9-14.3,19.5-27.5,31.3-39.5l72.2,47.2C755.1,382.3,729.9,411.5,718.5,430z"/>
<path class="st1" d="M683,335.1c4.3,21.3,8,31.1,9.3,52.7l0.2,3.2v1.2c17.6-1.2,36.9-2.9,53.8-8.1l7-2.1L683,335.1z"/>
<path class="st2" d="M759.5,385.3L759.5,385.3c1.5,5.6-1.8,11.4-7.4,12.9l0,0c-5.6,1.5-11.4-1.8-12.9-7.4l0,0
	c-1.5-5.6,1.8-11.4,7.4-12.9l0,0C752.2,376.4,758,379.7,759.5,385.3z"/>
<path class="st3" d="M748.8,387.6l0-3.6c0-0.4,0.5-0.7,0.8-0.4l0.3,0.2c0.3,0.2,0.4,0.5,0.4,0.8l-0.1,2.7l2.6-0.8
	c0.3-0.1,0.6,0,0.9,0.2l0.2,0.1c0.3,0.2,0.2,0.8-0.2,0.9l-3.4,1l0,4.1c0,0.4-0.5,0.6-0.8,0.4l-0.3-0.2c-0.3-0.2-0.4-0.5-0.4-0.8
	l0.1-3.1l-3,0.9c-0.3,0.1-0.6,0-0.9-0.2l-0.2-0.2c-0.3-0.2-0.2-0.8,0.2-0.9L748.8,387.6z"/>
<path class="st1" d="M532.7,285.3L532.7,285.3c20.6,6.9,40.6,15.3,60,24.9l2.9,1.4c7.8-15.9,13.8-32.6,17.8-49.8l1.7-7.1
	L532.7,285.3z"/>
<path class="st0" d="M630.2,130.3l68.2-24c6.3,12.5,11.3,25.6,14.7,39.2l-64.5,31.3C648.6,176.8,638.5,146.4,630.2,130.3z"/>
<path class="st1" d="M631,131.1c16.6,5.9,32.8,13,48.4,21.3l2.3,1.2c6.7-13.1,11.8-27,15.4-41.3l1.5-5.9L631,131.1z"/>
<path class="st4" d="M454.2,65.6L454.2,65.6c10.1-3.9,21.3,1.2,25.2,11.2l0,0c3.9,10.1-1.2,21.3-11.2,25.2l0,0
	c-10.1,3.9-21.3-1.2-25.2-11.2l0,0C439.2,80.8,444.2,69.5,454.2,65.6z"/>
<path class="st3" d="M461.9,91.5l-9.7-4.7c-0.2-0.1-0.3-0.3-0.2-0.5l0.7-1.6c0.1-0.2,0.3-0.3,0.5-0.2l7.3,3.5c0.1,0,0.2,0,0.3,0
	c0.1,0,0.2-0.1,0.2-0.2l4.9-12.7c0.1-0.2,0.3-0.3,0.5-0.2l1.6,0.7c0.2,0.1,0.3,0.3,0.2,0.5l-5.8,15.1c0,0.1-0.1,0.2-0.2,0.2
	S461.9,91.5,461.9,91.5z"/>
<path class="st5" d="M171.7,309.1c-0.7-2.2-2.5-3.8-4.7-4.2c-7.7-1.8-18.4,3.6-25.3,7.5c-7.9,4.6-15,10.3-21.1,17.1
	c-12.7,13.9-22.1,31-29.7,48.5c-2.4,5.6-4.6,11.3-6.7,16.9c1.7-20,7-39.8,15.3-55.1c6.6-12.2,16.8-21.7,26.3-31.5
	c9.4-9.6,21-20.6,20.4-35.2c0-1.9-0.7-3.8-1.9-5.4c-1.8-2.1-4.6-3.2-7.4-2.7c-10,1-20.6,10.8-27.3,17.7
	c-7.4,7.7-13.6,16.6-18.1,26.4c-9.5,19.7-13.6,41.7-15.3,63.4c-0.6,7.4-0.8,14.9-1,22.4c-0.1,4.9-0.4,10.6-0.2,16.2
	c-0.1-0.3-0.2-0.6-0.2-0.8c-5.5-19.3-7.5-40.3-5-57.3c1.7-11.8,6.9-22.1,11.4-32.6c4.5-10.3,10.3-22.2,6-34.3c-0.5-1.6-1.5-3-2.8-4
	c-1.8-1.3-4.3-1.5-6.3-0.5c-7.2,3.2-12.6,13.9-15.8,21.2c-3.6,8.4-5.8,17.3-6.7,26.4c-1.9,18.8,0.8,38.1,5.2,56.7
	c1.5,6.3,3.3,12.7,5.1,19c2.2,7.6,4.8,17.8,8.8,24.5c1.8,3.1,3.8,1.8,4.1-1c0.1-1,2.8-3.4,3.3-4.7c0.8-2,0.4-3.9,0.9-5.9
	c0.9-3.9,3-7.9,4.4-11.6c7.1-18.8,18-36.8,30.2-48.9c8.4-8.4,18.7-13.6,28.6-19.3c9.7-5.5,21.5-11.6,25.3-23.8
	C172.1,312.4,172.1,310.7,171.7,309.1z"/>
<path class="st6" d="M380.1,490.1c-14.8-23.7-42-28.7-64-42.9c-26.2-16.9-32.8-47.1-49.8-71.6c-14.3-20.6-34.5-34.1-59.5-37.6
	c-32.9-4.6-68.6,6-91.9,30.3c-14.5,15.2-21.7,33.9-32.1,51.5C69.1,443,39.9,455,20.4,472.6c-10.2,9.2-18.9,22.1-20.2,36.5
	c-1.1,11.5,3.1,32.7,17.5,34c59.5,5.5,119.3,6.2,179,5.9c52.2-0.3,104.4-1.4,156.7-2.4c6.7-0.1,13.5-0.3,19.9-2.3
	C398.5,536.2,393,510.8,380.1,490.1z"/>
<path class="st7" d="M195.4,379h36.2c5.2,0,9.4,4.2,9.4,9.4v24.1c0,5.2-4.2,9.4-9.4,9.4h-36.2c-2.5,0-4.9-1-6.6-2.8
	c-1.8-1.8-2.8-4.2-2.8-6.7v-24.1C186,383.2,190.2,379,195.4,379z"/>
<path class="st8" d="M208.5,391.2c1.8-0.5,3.6-1.3,5.2-2.3c1.3-0.5,2.6-1.1,3.9-1.8c0.8-0.5,1.5-1.2,2.3-1.8
	c0.3-0.2,0.7-0.4,1.1-0.6V379h-15v13C206.8,391.7,207.7,391.4,208.5,391.2z"/>
<rect x="206" y="415" class="st9" width="15" height="7"/>
<path class="st10" d="M391,191.1c0.3,4.8-2.3,9.4-6.6,11.6c-4.3,2.2-9.6,1.5-13.2-1.7c-3.7-3.2-5.1-8.3-3.5-12.9
	c1.5-4.6,5.7-7.8,10.5-8.2c3.2-0.2,6.3,0.8,8.7,2.9C389.3,185,390.7,188,391,191.1z"/>
<path class="st11" d="M366.2,217c0.3,0.3,0.4,0.6,0.4,0.9c0.7,4,2.3,7.9,4.8,11.2c0.7,1,1.9,1.3,2.9,0.9c2.9-0.6,5.7-1.5,8.5-2.5
	c1.5,3.6,2.7,7.3,3.5,11.1c0.7,2.7,1.1,5.5,1,8.3c2.1-0.6,4.1-1.3,6.1-2.1c4.5-1.9,10.1-4.5,14-8.3c-1-1.4-1.8-3-2.4-4.6
	c-1.3-3.7-1.6-7.6-1-11.4c0.7-4.4,3.2-8.3,3.8-12.6c0.4-3.1,0.2-6.3-0.6-9.3c-1.6-6.6-6.2-12-12.5-14.7c-4.8-1.9-10.8-2.8-15.8-1.2
	c-1.2,0.3-2.4,0.8-3.5,1.3c-1.1,0.5-1.3,1.3-1.8,2.3c-0.9,1.7-1.7,3.4-2.4,5.2c-0.7,1.7-1.3,3.4-1.8,5.2c-0.7,3.8-1.9,7.4-3.7,10.9
	c-1.3,2.2-2.9,4.2-4.3,6.3c-0.4,0.7-0.8,1.6-0.3,2.2c0.4,0.4,1,0.6,1.5,0.5c0.9,0.1,1.8,0.1,2.7,0.2
	C365.7,216.8,365.9,216.9,366.2,217z"/>
<path class="st12" d="M552.3,208.8c-0.6-3.9-1.8-7.8-3.6-11.3c-1.9-3.9-4.5-7.5-7.8-10.4c-6.3-5.4-15.4-7.9-23.3-5.3
	c-5.4,1.8-9.7,5.7-14.5,8.7c-4.8,3-10.8,5.2-16.1,3.2c-4.2-1.6-7.4-5.6-11.8-5.9c-5.9-0.4-9.9,5.8-15.1,8.7c-4,2.3-8.9,2.6-13.2,0.9
	c-4-1.6-7.1-4.9-10.8-7.2c-7.7-4.8-18.1-4.4-25.8,0.3c-3.1-5.6-8.2-9.9-14.3-11.9c-7.1-2.4-14.8-1.9-21.6,1.4
	c-5.9,3-5.2,8.9-1.8,13.8c3,4,7,7,11.7,8.7c0.8,0.3,5.8,1.5,6,2.1c-0.8-2.3,2.5-4.4,4.7-3.2c2.1,1.2,2.7,4.1,2.2,6.4
	c-0.3,1.4-1.1,2.7-2.2,3.6c-0.6,0.5-1.2,0.8-2,1c-0.5,0.1-1.7-0.2-2.1,0.4c-0.7,1.2,0.7,4.1,1.2,5.1c1.1,2,2.6,3.8,4.4,5.2
	c1,1,2.1,1.9,3.3,2.6c2.6,1.4,4.3-2.4,5.6-4.1c1.9-2.5,3.6-5.1,5-7.8c2.1-4,3.1-8.6,2.7-13.1c2.6,0.7,5,2.2,6.7,4.2
	c3.2,3.9,4.4,9,5.2,13.9c0.8,5,1.4,10.1,3.7,14.6c2.8,5.3,7.7,9.2,13.4,10.9c5.8,1.6,11.9,1,17.3-1.6c4.4-2.1,8.2-5.4,13-6.3
	c4.6-0.8,9.3,0.9,12.4,4.4c4.3,5,4.5,12.6,8.7,17.7c4.8,5.7,13.4,6.5,20.8,5C539.8,258.4,556.6,234.2,552.3,208.8z"/>
<path class="st13" d="M381.8,547.4c0.1,2.2,0.3,4.3,0.4,6.5L351,556c0-0.3,0-0.6,0-0.9c4.5-1.9,9-4.1,13.3-6.5
	c1-0.6,2.1-1.1,3.1-1.7c0,0,0,0,0,0c0.1-0.1,0.2-0.1,0.3-0.2c0.6-0.6,1-1.4,1.1-2.2c0.3-1.6,0.7-3.1,1-4.7c0.3-1.5,0.6-3,0.9-4.5
	c3.1,0.1,6.3,0,9.4-0.1c1,0,1.9-0.1,2.9-0.2c-0.4,2-0.7,4-0.8,6.1c-0.2,1.4-0.3,2.9-0.4,4.3v0.2
	C381.8,546.2,381.8,546.8,381.8,547.4z"/>
<path class="st14" d="M382,553l-31,2c0-0.3,0-0.6,0-0.9c4.5-1.8,8.9-3.9,13.2-6.2c1-0.5,2.1-1.1,3.1-1.6c0.2,0.1,0.4,0.2,0.4,0.2
	c0.6,0.2,1.2,0.4,1.9,0.4c4.1,0.4,8.3-0.2,12-1.9c0,0.5,0,1.1,0,1.7C381.6,548.8,381.8,550.9,382,553z"/>
<path class="st15" d="M429.5,344.4c-0.6-1.1-1.4-2.2-2.2-3.3c-0.3-0.4-0.7-0.8-1-1.2l-32.7,7.3c0,0-0.6,9.5-0.7,10.2
	c-1.3,13.5-6.1,26.3-9.3,39.4c-3.8,15.2-7.4,30.7-9.2,46.3c-2,16.6-2.9,33.4-3.6,50.1c-0.2,5.4-0.5,10.8-0.7,16.2
	c-0.1,2.1-0.5,17.8-1,27.5c4.5-0.1,9-0.5,13.5-0.7c0.5-2.7,0.8-5.3,1-6.1c3.4-15.4,8.1-30.7,8.6-46.6c0.2-5.7-0.2-11.4-1.3-17
	c-1.1-5.2-2.9-11.1-0.5-16.2c3.6-7.3,8.9-13.8,13.2-20.7c9.9-16.3,18.4-33.4,25.3-51.2C432.9,367.6,435.4,355.2,429.5,344.4z"/>
<path class="st8" d="M386.1,556.8l-19.9,1.2c-1.1,0.1-2.1-0.7-2.2-1.8c-0.1-1,0.8-1.9,1.9-2l19.9-1.2c1.1-0.1,2.1,0.7,2.2,1.8
	C388.1,555.8,387.2,556.7,386.1,556.8z"/>
<path class="st16" d="M376.4,556.9c-1.1,0.3-2.3-0.4-2.6-1.5l-8.8-33.7c-0.3-1.2,0.4-2.3,1.5-2.6c1.1-0.3,2.3,0.4,2.6,1.5l8.8,33.7
	C378.2,555.4,377.6,556.6,376.4,556.9z"/>
<path class="st17" d="M530.8,573.2c-11.2,0.4-22.4,0.9-33.6,0.2c-14.2-1-28.4-1.1-42.5-0.6c-30.9,1.4-61.8,1.9-92.7,1.6
	c-15.6-0.1-31.2-0.4-46.8-0.9c-14.4-0.4-28.7-2.4-43.2-2.5c-1.8,0-3.7,0-5.5,0c-19.6,0.1-39.1,1.8-58.6,3.7
	c-9.7,0.9-19.5,1.9-29.2,2.7c-5.9,0.5-19-0.2-21.3,5.9c-2.4,6.4,19.9,8.8,24.7,9.7c9.2,1.6,18.4,2.7,27.7,3.3
	c18.7,1.1,37.4,1.1,56.1-0.1c36-2,71.5-4.3,107.6-3.4c31.4,0.9,62.8,2.5,94.3,2.9c22,0.3,45.1,1.2,66.6-4c6.6-1.6,25.5-6.4,26.7-13
	c1-5.6-11.4-5.6-15.8-5.6c-1.8,0-3.6,0-5.4,0C536.8,573,533.8,573.1,530.8,573.2z"/>
<path class="st18" d="M525.3,453.2c12.9,9.8,22.3,23.5,26.7,39.1c0.1,0.4,0.4,0.6,0.8,0.6h3.3c0.3,0,0.5-0.1,0.7-0.3
	c0.2-0.2,0.2-0.5,0.2-0.8c-4.3-16-13.6-30.2-26.4-40.7c0,0,0-0.1-0.1-0.1c-0.1-0.1-0.2-0.2-0.4-0.3c-0.2-0.2-0.5-0.4-0.7-0.6
	c-0.7-0.5-1.4-1.1-2.1-1.6c-0.3-0.2-0.6-0.5-1-0.7c-0.7-0.5-1.3-0.9-2-1.4c-0.4-0.2-0.7-0.5-1.1-0.7c-0.7-0.4-1.3-0.8-2-1.2
	c-0.4-0.2-0.7-0.5-1.1-0.7c-0.7-0.4-1.4-0.8-2.1-1.2c-0.4-0.2-0.7-0.4-1.1-0.6c-0.8-0.4-1.5-0.8-2.3-1.2c-0.3-0.2-0.6-0.3-0.9-0.5
	c-1.1-0.5-2.1-1-3.2-1.4c0,0-0.1,0-0.1-0.1c-1.1-0.5-2.3-0.9-3.5-1.3c-0.3-0.1-0.5-0.2-0.8-0.3c-0.9-0.3-1.8-0.6-2.7-0.9
	c-0.4-0.1-0.8-0.2-1.2-0.4c-0.8-0.2-1.6-0.5-2.3-0.7c-0.4-0.1-0.9-0.2-1.3-0.3c-0.8-0.2-1.5-0.4-2.3-0.5c-0.5-0.1-0.9-0.2-1.4-0.3
	c-0.8-0.1-1.5-0.3-2.3-0.4c-0.5-0.1-0.9-0.2-1.4-0.2c-0.8-0.1-1.6-0.2-2.4-0.3c-0.5-0.1-0.9-0.1-1.4-0.2c-0.9-0.1-1.8-0.1-2.6-0.2
	c-0.4,0-0.8-0.1-1.2-0.1c-1.3-0.1-2.6-0.1-3.8-0.1h0h0c-1.3,0-2.6,0-3.8,0.1c-0.4,0-0.8,0.1-1.2,0.1c-0.9,0.1-1.8,0.1-2.6,0.2
	c-0.5,0-0.9,0.1-1.4,0.2c-0.8,0.1-1.6,0.2-2.4,0.3c-0.5,0.1-1,0.1-1.4,0.2c-0.8,0.1-1.5,0.3-2.3,0.4c-0.5,0.1-0.9,0.2-1.4,0.3
	c-0.8,0.2-1.5,0.3-2.3,0.5c-0.5,0.1-0.9,0.2-1.3,0.3c-0.8,0.2-1.6,0.4-2.4,0.7c-0.4,0.1-0.8,0.2-1.2,0.4c-0.9,0.3-1.8,0.6-2.7,0.9
	c-0.3,0.1-0.5,0.2-0.8,0.3c-1.2,0.4-2.3,0.9-3.5,1.3c0,0-0.1,0-0.1,0.1c-1.1,0.4-2.1,0.9-3.2,1.4c-0.3,0.1-0.6,0.3-0.9,0.5
	c-0.8,0.4-1.5,0.8-2.3,1.2c-0.4,0.2-0.7,0.4-1.1,0.6c-0.7,0.4-1.4,0.8-2.1,1.2c-0.4,0.2-0.7,0.4-1.1,0.7c-0.7,0.4-1.3,0.8-2,1.2
	c-0.4,0.2-0.7,0.5-1.1,0.7c-0.7,0.4-1.3,0.9-2,1.4c-0.3,0.2-0.6,0.5-1,0.7c-0.7,0.5-1.4,1.1-2.1,1.6c-0.2,0.2-0.5,0.4-0.7,0.6
	c-0.1,0.1-0.2,0.2-0.4,0.3c0,0,0,0.1-0.1,0.1c-17.7,14.5-28.3,35.8-29.1,58.6c0,0.6,0.2,1.2,0.6,1.6s1,0.7,1.6,0.7h0.4
	c1.2,0,2.2-1,2.2-2.2c0.9-22.3,11.7-43.1,29.5-56.6l0,0c4.7-3.6,9.7-6.6,15.1-8.9c0.2-0.1,0.4-0.2,0.5-0.2c0.7-0.3,1.5-0.6,2.2-0.9
	c0.3-0.1,0.6-0.2,0.8-0.3c0.7-0.3,1.4-0.5,2.1-0.8c0.3-0.1,0.7-0.2,1-0.3c0.7-0.2,1.4-0.5,2-0.7c0.4-0.1,0.8-0.2,1.2-0.3
	c1.1-0.3,2.1-0.6,3.2-0.8c0.6-0.1,1.2-0.3,1.9-0.4c0.5-0.1,1-0.2,1.5-0.3c0.7-0.1,1.3-0.2,2-0.3c0.5-0.1,0.9-0.1,1.4-0.2
	c0.7-0.1,1.4-0.2,2.1-0.3c0.4-0.1,0.9-0.1,1.3-0.1c0.8-0.1,1.6-0.1,2.4-0.2c0.4,0,0.7-0.1,1.1-0.1c1.2-0.1,2.3-0.1,3.5-0.1
	s2.4,0,3.5,0.1c0.4,0,0.7,0,1.1,0.1c0.8,0,1.6,0.1,2.4,0.2c0.4,0,0.9,0.1,1.3,0.1c0.7,0.1,1.4,0.2,2.1,0.3c0.5,0.1,0.9,0.1,1.4,0.2
	c0.7,0.1,1.3,0.2,2,0.3c0.5,0.1,1,0.2,1.5,0.3c0.6,0.1,1.2,0.3,1.9,0.4c1.1,0.3,2.1,0.5,3.2,0.8c0.4,0.1,0.8,0.2,1.2,0.3
	c0.7,0.2,1.4,0.4,2,0.7c0.3,0.1,0.7,0.2,1,0.3c0.7,0.2,1.4,0.5,2.1,0.8c0.3,0.1,0.6,0.2,0.8,0.3c0.7,0.3,1.5,0.6,2.2,0.9
	c0.2,0.1,0.4,0.2,0.6,0.2C515.6,446.7,520.6,449.7,525.3,453.2L525.3,453.2z"/>
<path class="st18" d="M223.1,433c-18.5,0-36.4,6.4-50.7,18.1c-0.4,0.4-0.6,1-0.4,1.5c0.2,0.5,0.7,0.9,1.3,0.9h3.5
	c0.3,0,0.6-0.1,0.8-0.3c22.4-17.1,52.4-20.2,77.8-8.1c25.4,12.1,41.9,37.4,42.6,65.5c0,0.7,0.6,1.3,1.4,1.3h2.1c0.4,0,0.7-0.1,1-0.4
	c0.3-0.3,0.4-0.6,0.4-1C301.9,467.4,266.4,433,223.1,433z"/>
<path class="st7" d="M155.6,484.4c11.4-27.5,38.2-45.4,67.9-45.4c40.6,0,73.5,32.9,73.5,73.5c0,29.7-17.9,56.5-45.4,67.9
	c-27.5,11.4-59.1,5.1-80.1-15.9C150.5,543.5,144.2,511.8,155.6,484.4z M284.7,487.2c-10.2-24.7-34.4-40.9-61.2-40.9
	c-36.5,0-66.1,29.7-66.2,66.2c0,26.8,16.1,50.9,40.9,61.2c24.7,10.2,53.2,4.6,72.1-14.3C289.2,540.4,294.9,511.9,284.7,487.2z"/>
<path class="st19" d="M163,487.7c10.2-24.7,34.3-40.7,61-40.7c36.4,0,66,29.5,66,66c0,26.7-16.1,50.8-40.7,61
	c-24.7,10.2-53.1,4.6-71.9-14.3C158.5,540.8,152.8,512.4,163,487.7z M285.1,513c0-33.8-27.4-61.1-61.1-61.1
	c-33.8,0-61.1,27.4-61.1,61.1c0,33.8,27.4,61.1,61.1,61.1S285.1,546.8,285.1,513z"/>
<path class="st8" d="M237.8,515c1.2-7.7-4-14.9-11.6-16.1s-14.9,4-16.1,11.6c-1.2,7.7,4,14.9,11.6,16.1S236.5,522.7,237.8,515z"/>
<path class="st16" d="M477.9,517.6l32.1-98.2l-3.4-0.2L475,516l-73.8-101.9l-2.5-3.4L404,390h-6.7l-5.5,21.2l-1.3,4.9l-11.4,44.3
	c-22.5-3.1-43.2-13-62.3-24.9c-17.9-11.1-33.4-25.8-45.5-43.1c-2.3-3.3-7,0.9-4.7,4.2c12.9,18.3,29.5,33.8,48.7,45.3
	c19.2,11.7,39.9,21.2,62.2,24.5L366.2,511l-98.9-104.3l-5.2-5.4l-2.1,7.2l5.2,5.4l99.1,104.5l5.3,5.6l1.9-7.4l24.3-94.4l1.3-4.9
	l0.3-1.3l2.1,2.9l75.6,104.3l3.4-2.4l-1.6-2.2C477.3,518.5,477.7,518.1,477.9,517.6z"/>
<path class="st8" d="M526,416h-95.8c-0.1,0-0.1,0-0.2,0c-0.6,0-1.3,0.2-1.8,0.6L409,432.3c-0.7,0.6-1.1,1.5-0.9,2.5
	c0.1,0.9,0.8,1.7,1.6,2.1c0.9,0.3,1.9,0.2,2.6-0.4l17.6-14.3c0.1,0,0.2,0,0.3,0H526c1.1,0,2.1-0.6,2.6-1.5c0.5-0.9,0.5-2.1,0-3.1
	C528.1,416.6,527.1,416,526,416L526,416z"/>
<path class="st7" d="M405,512.5c0-40.6,32.9-73.5,73.5-73.5c19.5,0,38.2,7.7,52,21.5c13.8,13.8,21.5,32.5,21.5,52
	c0,40.6-32.9,73.5-73.5,73.5S405,553.1,405,512.5z M544.7,512.5c0-36.6-29.6-66.2-66.2-66.2c-36.5,0-66.1,29.7-66.2,66.2
	c0,36.6,29.6,66.2,66.2,66.2S544.7,549.1,544.7,512.5z"/>
<path class="st19" d="M413,513c0-36.5,29.5-66,66-66c17.5,0,34.3,7,46.7,19.3C538,478.7,545,495.5,545,513c0,36.5-29.5,66-66,66
	S413,549.5,413,513z M540.1,513c0-33.8-27.4-61.1-61.1-61.1c-33.8,0-61.1,27.4-61.1,61.1c0,33.8,27.4,61.1,61.1,61.1
	S540.1,546.8,540.1,513z"/>
<path class="st8" d="M525,445.6c-22.2-14.6-50.1-17.6-74.9-8c-24.8,9.6-43.4,30.6-50.1,56.4h76.7L525,445.6z"/>
<path class="st8" d="M479,499H367.2c-10.3,0.1-19.3,7-22.2,16.9c-2.9,9.9,0.9,20.6,9.4,26.4c6.9,4.6,13.9,4.1,21.6,2.7
	c9.6-1.7,19.2-3.3,28.8-5c17.2-3,34.3-6,51.5-8.9c4.8-0.8,9.6-1.7,14.3-2.5c5.2-0.9,11.4-0.7,16-3.7c5.2-3.4,7.5-9.9,5.7-15.8
	C490.6,503.1,485.2,499,479,499L479,499z"/>
<path class="st16" d="M478.5,517c2.5,0,4.5-2,4.5-4.5s-2-4.5-4.5-4.5s-4.5,2-4.5,4.5S476,517,478.5,517z"/>
<path class="st3" d="M350.4,515.4c2.9-6.9,9.6-11.4,17.1-11.4c10.2,0,18.5,8.3,18.5,18.5c0,7.5-4.5,14.2-11.4,17.1
	c-6.9,2.9-14.9,1.3-20.2-4C349.1,530.3,347.5,522.3,350.4,515.4z M381.7,516.6c-2.4-5.8-8-9.5-14.2-9.5c-8.5,0-15.4,6.9-15.4,15.4
	c0,6.2,3.8,11.8,9.5,14.2c5.8,2.4,12.4,1.1,16.8-3.3C382.8,529,384.1,522.4,381.7,516.6z"/>
<path class="st8" d="M418.9,376.6c0,0-0.1,0-0.1,0c-3.9-0.9-8.1-0.4-12.1-0.2c-4.5,0.2-8.9,0.5-13.4,0.7c-8.8,0.4-17.6,0.7-26.5,0.5
	c-2.5-0.1-5.3,0.1-7.3,1.8c-3.5,3-0.5,6.3,2.7,7.1c3.1,0.7,6.3,0.2,9.3,0.8c4,0.6,7.9,1.8,11.5,3.5c7.6,3.9,15.8,7.9,24.5,8.4
	c7.3,0.4,17.1-2,19-10.6C428,382.4,424.4,377.8,418.9,376.6z"/>
<path class="st16" d="M310.4,334c-0.3-0.1-0.6-0.1-1-0.1c-1.6,0-3.2,0.2-4.8,0.2c-1.7,0-3.3,0-5-0.1c-3.3-0.1-6.6-0.5-9.8-1.1
	c-2.5-0.6-5.1-0.9-7.7-1c-2.7-0.1-5.3,0.9-7.3,2.8c-1.8,1.8-2.8,4.3-2.6,6.9c0.4,3.6,2.4,6.7,5.5,8.5l-9,30.7h-7.5v5.6h5.8
	l-4.5,15.5l-2.1,7.2l-0.8,2.7h-8.3v5.6h6.7l-23.8,80.8l-12.3,12.3c-1.2,1.2-1.2,3.3,0,4.5s3.2,1.2,4.5,0l4.1-4.1l9-9.1
	c0.4-0.4,0.6-0.8,0.8-1.3c0,0,0-0.1,0-0.1l25.4-86l2.1-7.2l17.2-58.2c0-0.1,0-0.1,0-0.2c0.2-0.8-0.1-1.6-0.6-2.1
	c-0.7-0.5-1.5-0.8-2.4-1c-0.2-0.1-0.3-0.1-0.5-0.2c-0.7-0.3-1.4-0.7-1.9-1.2c-1.6-1.1-2.2-3.1-1.5-5c0.9-2.1,3.8-2.1,5.7-1.9
	c3.2,0.3,6.4,1.2,9.6,1.6c3.3,0.4,6.6,0.6,9.9,0.5c1.6,0,3.2-0.1,4.9-0.2c0.7,0,1.4-0.2,2.1-0.4c0.9-0.4,1.5-1.2,1.6-2.2
	C312.1,335.5,311.5,334.5,310.4,334z"/>
<path class="st8" d="M262,374c-0.9-1.3-2.4-2-4-2h-84c-1.6,0-3.1,0.7-4,2c-0.9,1.3-1.2,2.9-0.8,4.4l13.5,45.5h66.5l13.5-45.5
	C263.2,376.9,263,375.3,262,374z M178,399.4H189l1.8,11h-9.5L178,399.4z M214.8,410.4v-11h-10.4l0.8,11H214.8z M204.3,397.1l-0.8-11
	h11.4v11H204.3z M227.6,399.4h-10.4v11h9.6L227.6,399.4z M217.2,397.1v-11h11.4l-0.8,11H217.2z M217.2,374.4v9.4h11.5l0.7-9.4H217.2
	z M214.8,383.8h-11.5l-0.7-9.4h12.2V383.8z M188.9,383.8H201l-0.7-9.4h-12.9L188.9,383.8z M201.2,386.1l0.8,11H191l-1.8-11H201.2z
	 M177.3,397.1h11.4l-1.8-11H174L177.3,397.1z M191.4,399.4h10.7l0.8,11h-9.7L191.4,399.4z M203.6,421.6l-0.6-8.9h-9.5l1.4,8.9H203.6
	z M205.4,412.7h9.5v8.9H206L205.4,412.7z M226.6,412.7h-9.5v8.9h8.9L226.6,412.7z M229,412.7h9.5l-1.4,8.9h-8.7L229,412.7z
	 M229.9,399.4l-0.8,11h9.7l1.8-11H229.9z M243,399.4H254l-3.3,11h-9.5L243,399.4z M245.1,386.1l-1.8,11h11.4l3.3-11H245.1z
	 M241,397.1h-10.9l0.8-11h11.9L241,397.1z M231.7,374.4l-0.7,9.4h12.1l1.5-9.4H231.7z M171.9,375.5c0.5-0.7,1.2-1,2.1-1h11.1
	l1.5,9.4h-13.2l-1.8-6.1C171.3,377,171.5,376.1,171.9,375.5z M191.1,412.7h-9.2l2.6,8.9h8L191.1,412.7z M247.4,421.6h-8l1.4-8.9h9.2
	L247.4,421.6z M258.6,383.8l1.8-6.1c0.2-0.8,0.1-1.6-0.4-2.3c-0.5-0.7-1.2-1-2.1-1h-11.1l-1.5,9.4H258.6z"/>
<path class="st20" d="M309.3,332c-4.6,0.6-9.2,0.7-13.8,0.3c-4.7-0.4-4.7,7.1,0,7.5c4.6,0.4,9.2,0.3,13.8-0.3c2-0.1,3.6-1.7,3.7-3.7
	C313,333.9,311.3,331.8,309.3,332z"/>
<path class="st16" d="M368.4,524.9c-1.1,0.3-2.3-0.4-2.6-1.5l-9.7-36.7c-0.3-1.2,0.4-2.3,1.5-2.6c1.1-0.3,2.3,0.4,2.6,1.5l9.7,36.7
	C370.2,523.4,369.5,524.6,368.4,524.9z"/>
<path class="st8" d="M367.7,484.8l-18.1,7c-1,0.4-2.1-0.1-2.5-1.1c-0.4-1,0.1-2.2,1.1-2.6l18.1-7c1-0.4,2.1,0.1,2.5,1.1
	C369.3,483.3,368.8,484.4,367.7,484.8z"/>
<path class="st13" d="M363.9,481.7c-0.4-0.6-1.5-2.7-2.2-4c-0.3-0.6-0.5-1-0.6-1.1c-0.3-0.6-0.5-1.1-0.8-1.7c-0.5-1.2-1-2.5-1.4-3.8
	c-0.1-0.3-1.5-4.1-1.4-4.2c-3.2,1.3-6.4,2.5-9.7,3.7c0,0,3.3,8.3,3,9.2c0,0.1-0.1,0.2-0.1,0.3c-0.4,0.7-1.3,1.3-1.9,1.9
	c-2.8,2.9-5.8,5.6-8.9,8.2c0.1,0.2,0.2,0.5,0.3,0.7c0,0,21-8,23.7-9.1C364,481.8,363.9,481.7,363.9,481.7z"/>
<path class="st12" d="M431.3,348.2c-0.5-3.1-1.2-6.2-2.1-9.2h-33c0.1,1.5,0,2.9-0.3,4.3c-0.1,0.5-0.3,1-0.5,1.5
	c-2.2,5.2-8.3,7.3-13.8,8.7c-22.1,5.6-45.3,8.7-65.6,19.6c-8.2,4.4-13.6,11.9-12.9,21.4c0.5,7.4,4,14.2,7.9,20.6
	c11.6,19.2,26.9,36.2,35.8,56.8c0.2,0.4,11.5-1.7,11.2-3.5c0-3.2-1.1-6.8-1.6-10c-0.5-3.3-1.3-6.5-2-9.7c-1.6-6.7-3.6-13.4-5.8-20
	c-3.2-9.5-7.1-19-14.5-26c-1.6-1.6-5.5-3.8-3.6-6.6c18.3,1.5,36.6,0,54.8-1.7c13.1-1.2,27.4-2.4,36.9-11.4c7.8-7.5,10.6-19,9.8-29.7
	C431.7,351.6,431.5,349.9,431.3,348.2z"/>
<path class="st8" d="M443.9,341.2c0.3-0.3,0.6-0.6,0.9-0.9c2.3-2.6,3.9-5.7,4.7-9.1c2.2-7.8,2.9-15.9,2.2-23.9
	c-0.2-2.4-0.5-4.9-1-7.3c-2.7-14-8.9-27.3-17-39c-0.8-1.2-1.6-2.3-2.4-3.4c-4.3-5.8-9.1-11.2-14.5-16c-1.4-1.2-9.2-9.2-11.3-8.5
	c-6.4,2-12.7,3.8-19.1,5.9c-1.1,0.3-1.8,5.5-2.1,6.6c-2.2,6.9-5.9,13.2-9.3,19.6c-2.4,4.5-4.5,9.3-1.9,14.2
	c2.3,4.3,6.7,6.7,10.1,9.9c9.1,8.6,12.1,21.6,12.9,33.6c0.3,3.4,0.4,6.9,0.3,10.4c-0.1,3.2-1.7,6.8-1.5,9.8
	c5.2,0.1,10.2-0.5,15.5,0.1c5.3,0.7,10.5,1.8,15.6,3.3c2.1,0.7,4.3,1.2,6.5,1.6c0.8,0.1,1.6-0.6,2.2-1c0.8-0.5,1.7-1,2.6-1.5
	C439.8,344.3,442,342.9,443.9,341.2z"/>
<path class="st14" d="M363.9,481.7c-0.4-0.6-1.5-2.6-2.2-3.9c-0.3-0.6-0.5-1-0.6-1.1c-0.3-0.6-0.5-1.1-0.8-1.7
	c-0.7,0.9-1.4,1.6-2.3,2.3c-1,0.7-2.1,1.2-3.2,1.6c-1.3,0.6-2.6,1-4,1.3c0,0-0.1,0-0.1,0c-0.4,0.7-1.3,1.3-1.9,1.9
	c-2.8,2.9-5.8,5.6-8.9,8.2c0.1,0.2,0.2,0.5,0.3,0.7c0,0,21-8,23.7-9.1C364,481.9,363.9,481.8,363.9,481.7z"/>
<path class="st7" d="M395.4,341.1c0.7-1.1,2.6-0.9,3.6-1c1.8-0.1,3.5-0.1,5.3-0.1c4.7,0.1,9.4,0.5,14.1,1.2c3.2,0.4,6.3,1.4,9.2,2.9
	c1.9,0.9,3.7,2.1,5.3,3.4c1.8,1.6,1,5.6,0,7.5c-0.9-0.7-1.9-1.4-3-1.9c-2.6-1.1-5.3-1.9-8.1-2.3c-2.8-0.6-5.7-1.2-8.6-1.8
	c-3.2-0.6-6.4-1-9.7-1.3c-1.7-0.1-3.4-0.2-5.1-0.2c-1.5,0.1-3,0-4.5-0.3c0.1-1.2,0.3-2.4,0.6-3.5C394.8,342.7,395,341.9,395.4,341.1
	z"/>
<path class="st7" d="M437.8,271.2c-0.9-3.6-2.2-7.1-4-10.4c-0.9-1.6-1.9-3.2-3-4.7c-0.1-0.1-0.2-0.3-0.3-0.4c-0.9-1.2-1.9-2.3-3-3.4
	c-0.5-0.5-1.1-1.1-1.6-1.6c-0.2-0.3-0.5-0.5-0.8-0.8c-0.2-0.3-0.5-0.5-0.7-0.7c-0.1-0.1-0.3-0.1-0.4-0.2c2.9,5.4,5.3,11,7.2,16.8
	c0.2,0.6,0.4,1.3,0.6,1.9c0.3,1.6,0.9,3.1,1.7,4.5c0.5,0.8,1.3,1.5,2.2,1.7c1,0.2,2-0.3,2.3-1.2C438,272.2,438,271.7,437.8,271.2z"
	/>
<path class="st21" d="M447.8,282.6c-0.6-5.4-2.8-10.4-6.3-14.5c-2.1-2.4-4.6-4.4-7.5-5.7c-0.5-0.3-1-0.4-1.6-0.3
	c-1,0.2-1.4,1.4-1.6,2.4c-2.5,12.3-13.1,21.9-25.7,25.7c-2.9,0.9-5.9,1.4-9,1.6c-1.7,0.1-4.6,0.2-4,2.4c0.6,1.7,1.4,3.4,2.4,4.9
	c6.2,10.5,18.4,15.9,30.4,13.4c7.4-1.3,14-5.3,18.5-11.3C447.1,295.7,448.6,289.1,447.8,282.6z"/>
<path class="st7" d="M439.8,281.3c-0.5-4-2.1-7.8-4.7-10.8c-1.5-1.8-3.5-3.3-5.6-4.3c-0.4-0.2-0.8-0.3-1.2-0.2
	c-0.8,0.2-1,1.1-1.2,1.8c-1.8,9.2-9.8,16.4-19.3,19.1c-2.2,0.6-4.4,1-6.7,1.2c-1.2,0.1-3.4,0.1-3,1.8c0.4,1.3,1,2.5,1.8,3.6
	c4.7,7.8,13.8,11.8,22.8,10c5.5-1,10.5-4,13.9-8.4C439.3,291.1,440.5,286.2,439.8,281.3z"/>
<path class="st7" d="M432.6,310.9C432.6,310.9,432.6,310.9,432.6,310.9c0.3,0.1,0.5,0.1,0.7,0.1c4.6-0.4,10.1-3.2,10.7-7.7
	c0.2-1.4-1.6-2.5-2.6-3.3c-1.6-1.3-3.3-2.5-5-3.6c-1.7-1-3.7-2.6-6-2.3c-1.5,0.2-4.7,1.9-4.4,3.6c0.1,0.6,0.8,0.9,1.2,1.4
	c1.6,2.3,2.9,4.8,3.8,7.4c0.3,0.8,0.6,1.6,0.9,2.5C432,309.4,432,310.6,432.6,310.9z"/>
<path class="st22" d="M435.5,305c1.4,0,2.5-1.1,2.5-2.5s-1.1-2.5-2.5-2.5s-2.5,1.1-2.5,2.5S434.1,305,435.5,305z"/>
<path class="st11" d="M412,248.5c0,2.6-0.4,5.1-1,7.6c-0.2,0.7-0.3,1.4-0.5,2c-1.9,7.1-4.6,13.9-7.1,20.8c-1.4,4.1-3,8.1-4.5,12.1
	c-0.8,2.1-1.6,4.1-2.3,6.2c-0.4,1.1-0.8,2.1-1.2,3.2c-0.2,0.5-1.2,2.2-1,2.7c-1.8,4.9-3.7,10.1-8,13.5c-3.2,2.5-7.3,3.4-11.2,4.3
	c-4.6,1.1-9.3,2.1-13.9,3.2c-15,3.4-30,6.8-45,10.2c-2.9,0.7-7.1,0.6-8.7,3.6c-1,1.9-0.9,5-2.9,6.2c-1.4,0.9-3.3,0.6-4.8,0.9
	c-0.7,0.2-1.5,0.2-2.2,0c-1.3-0.3-1.6-1.2-1.6-2.4c-0.1-2.4,0-4.8,0.4-7.2c0.9-4.9,4.4-8.2,8.9-10.1c3.7-1.6,7.9-1.7,11.9-2.2
	c11.9-1.6,22.8-7.6,33.8-12.5c8.3-3.7,16.7-6.7,25.7-6.7c3.1-13,6.2-25.9,9.2-38.9c1-5.2,2.6-10.2,4.6-15.1
	c2.1-4.7,5.5-10,10.4-12.1c2.4-1.1,5.1-1,7.4,0.3C411.6,240.2,412.1,245,412,248.5z"/>
<path class="st7" d="M412,248.5c0,2.6-0.4,5.1-1,7.6c-0.2,0.7-0.3,1.4-0.5,2c-1.9,7.1-4.6,13.9-7.1,20.8c-1.4,4.1-3,8.1-4.5,12.1
	c-0.8,2.1-1.6,4.1-2.3,6.2c-0.4,1.1-0.8,2.1-1.2,3.2c-0.2,0.5-1.2,2.2-1,2.7c-1.8,4.9-3.7,10.1-8,13.4c-3.2,2.5-7.3,3.4-11.2,4.3
	c-4.6,1.1-9.3,2.1-13.9,3.2c-0.4-1-0.9-1.9-1.4-2.9c-1.6-3.3-3.8-6.2-6.4-8.8c-0.8-0.7-1.7-1.3-2.6-1.9c8.3-3.6,16.7-6.7,25.7-6.7
	c3.1-13,6.2-25.9,9.2-38.9c1-5.2,2.6-10.2,4.6-15.1c2.1-4.7,5.5-10,10.4-12c2.4-1.1,5.1-1,7.4,0.3C411.6,240.2,412.1,245,412,248.5z
	"/>
<path class="st7" d="M405.9,226.3c-0.6-1.6-2.2-1.3-3.6-1c-3.6,0.8-7.1,1.9-10.5,3.3c-1.7,0.7-3.4,1.4-5.1,2.1
	c-1.4,0.6-3.4,1-4.5,2.1c-0.9,0.9,0.3,2.3,0.8,3.1c0.7,1.3,1.2,2.6,1.4,4c0,0.3,0.1,0.6,0.3,0.8c0.6,1,3.8-0.1,4.8-0.4
	c1.8-0.5,3.5-1,5.2-1.6c2-0.7,4-1.5,6-2.1c2-0.7,4.1-1.1,6.1-1.6c0.6-0.1,1.1-0.1,1.1-0.8C407.7,231.4,407,228.7,405.9,226.3z"/>
<path class="st23" d="M415.1,201c0.4-0.6,0.6-1.2,0.7-1.8c0.5-2.5-0.1-5.1-1.5-7.2c-0.5-0.7-1.1-1.3-1.8-1.7
	c-0.6-0.3-1.4-0.4-2.1-0.1c-0.7,0.4-0.1,1.1,0.1,1.7c1.2,3.3,2.1,6.6,2.6,10.1c0.7,0,1.5-0.3,1.9-0.9
	C415,201.1,415.1,201.1,415.1,201z"/>
<path class="st4" d="M693.5,102.7L693.5,102.7c4.3-0.9,8.6,1.8,9.5,6.2l0,0c0.9,4.3-1.8,8.6-6.2,9.5l0,0c-4.3,0.9-8.6-1.8-9.5-6.2
	l0,0C686.4,107.9,689.1,103.6,693.5,102.7z"/>
<path class="st3" d="M694.9,113.6l-3.7-2.6c-0.1-0.1-0.1-0.2,0-0.2l0.4-0.6c0-0.1,0.1-0.1,0.2,0l2.8,2c0,0,0.1,0,0.1,0
	c0,0,0.1,0,0.1-0.1l2.9-5c0-0.1,0.1-0.1,0.2-0.1l0.6,0.4c0.1,0,0.1,0.2,0.1,0.2l-3.4,6c0,0-0.1,0.1-0.1,0.1
	C695,113.6,694.9,113.6,694.9,113.6z"/>
<path class="st4" d="M608.6,250.6L608.6,250.6c5.7-0.8,11.1,3.2,11.9,8.9l0,0c0.8,5.7-3.2,11.1-8.9,11.9l0,0
	c-5.7,0.8-11.1-3.2-11.9-8.9l0,0C598.9,256.8,602.9,251.5,608.6,250.6z"/>
<path class="st3" d="M609.4,266l-4.5-3.9c-0.1-0.1-0.1-0.2,0-0.3l0.5-0.8c0.1-0.1,0.2-0.1,0.3,0l3.4,2.9c0,0,0.1,0.1,0.2,0
	s0.1,0,0.1-0.1l4-6.4c0.1-0.1,0.2-0.1,0.3,0l0.7,0.6c0.1,0.1,0.1,0.2,0.1,0.3l-4.7,7.6c0,0-0.1,0.1-0.1,0.1
	C609.5,266,609.5,266,609.4,266z"/>
</svg>
